<?xml version="1.0" encoding="utf-8"?>
<!-- Generator: Adobe Illustrator 16.0.4, SVG Export Plug-In . SVG Version: 6.00 Build 0)  -->
<!DOCTYPE svg PUBLIC "-//W3C//DTD SVG 1.1//EN" "http://www.w3.org/Graphics/SVG/1.1/DTD/svg11.dtd">
<svg version="1.1" id="Layer_1" xmlns="http://www.w3.org/2000/svg" xmlns:xlink="http://www.w3.org/1999/xlink" x="0px" y="0px"
	 width="595.28px" height="595.275px" viewBox="0 0 595.28 595.275" enable-background="new 0 0 595.28 595.275"
	 xml:space="preserve">
<g>
	<path fill-rule="evenodd" clip-rule="evenodd" d="M476.863,477.819c0,14.626,0,28.867,0,43.531c-119.213,0-238.179,0-357.582,0
		c0-14.43,0-28.766,0-43.531C238.583,477.819,357.419,477.819,476.863,477.819z"/>
	<path fill-rule="evenodd" clip-rule="evenodd" d="M476.886,416.896c0,16.424,0,32.396,0,48.812c-119.178,0-238.281,0-357.66,0
		c0-16.214,0-32.306,0-48.812C238.332,416.896,357.351,416.896,476.886,416.896z"/>
	<path fill-rule="evenodd" clip-rule="evenodd" d="M119.211,404.778c0-16.439,0-32.539,0-48.963c119.158,0,238.056,0,357.396,0
		c0,16.171,0,32.385,0,48.963C357.694,404.778,238.662,404.778,119.211,404.778z"/>
	<path fill-rule="evenodd" clip-rule="evenodd" d="M119.335,300.309c119.021,0,238.013,0,357.358,0c0,14.459,0,28.839,0,43.542
		c-119.039,0-238.008,0-357.358,0C119.335,329.372,119.335,315,119.335,300.309z"/>
	<path fill-rule="evenodd" clip-rule="evenodd" d="M488.495,288.782c-127.301,0-253.695,0-380.743,0c0,81.283,0,162.275,0,243.578
		c-16.582,0-32.514,0-48.901,0c0-93.608,0-187.265,0-281.284c159.331,0,318.505,0,478.197,0c0,93.588,0,187.251,0,281.249
		c-15.967,0-32.013,0-48.553,0C488.495,451.232,488.495,370.291,488.495,288.782z"/>
	<path fill-rule="evenodd" clip-rule="evenodd" d="M584.718,239.022c-191.525,0-381.86,0-573.279,0
		c2.068-1.426,3.308-2.366,4.628-3.178c41.289-25.384,82.586-50.756,123.883-76.128c51.34-31.543,102.693-63.063,153.986-94.683
		c2.873-1.771,4.955-1.978,7.976-0.117c92.46,56.945,184.985,113.785,277.497,170.646
		C580.89,236.474,582.325,237.46,584.718,239.022z"/>
</g>
</svg>
